[Header]
FileType HTR
DataType HTRS
FileVersion 1
NumSegments 64
NumFrames 3
DataFrameRate 24
EulerRotationOrder ZYX
CalibrationUnits mm
RotationUnits Degrees
GlobalAxisofGravity Y
BoneLengthAxis Y
ScaleFactor 1.0
[SegmentNames&Hierarchy]
Hips	GLOBAL
Spine	Hips
Spine1	Spine
Spine2	Spine1
Neck	Spine2
Head	Neck
LeftEye	Head
RightEye	Head
LeftShoulder	Spine2
LeftArm	LeftShoulder
LeftForeArm	LeftArm
LeftHand	LeftForeArm
LeftHandThumb1	LeftHand
LeftHandThumb2	LeftHandThumb1
LeftHandThumb3	LeftHandThumb2
LeftHandThumb4	LeftHandThumb3
LeftHandIndex1	LeftHand
LeftHandIndex2	LeftHandIndex1
LeftHandIndex3	LeftHandIndex2
LeftHandIndex4	LeftHandIndex3
LeftHandMiddle1	LeftHand
LeftHandMiddle2	LeftHandMiddle1
LeftHandMiddle3	LeftHandMiddle2
LeftHandMiddle4	LeftHandMiddle3
LeftHandRing1	LeftHand
LeftHandRing2	LeftHandRing1
LeftHandRing3	LeftHandRing2
LeftHandRing4	LeftHandRing3
LeftHandPinky1	LeftHand
LeftHandPinky2	LeftHandPinky1
LeftHandPinky3	LeftHandPinky2
LeftHandPinky4	LeftHandPinky3
RightShoulder	Spine2
RightArm	RightShoulder
RightForeArm	RightArm
RightHand	RightForeArm
RightHandPinky1	RightHand
RightHandPinky2	RightHandPinky1
RightHandPinky3	RightHandPinky2
RightHandPinky4	RightHandPinky3
RightHandRing1	RightHand
RightHandRing2	RightHandRing1
RightHandRing3	RightHandRing2
RightHandRing4	RightHandRing3
RightHandMiddle1	RightHand
RightHandMiddle2	RightHandMiddle1
RightHandMiddle3	RightHandMiddle2
RightHandMiddle4	RightHandMiddle3
RightHandIndex1	RightHand
RightHandIndex2	RightHandIndex1
RightHandIndex3	RightHandIndex2
RightHandIndex4	RightHandIndex3
RightHandThumb1	RightHand
RightHandThumb2	RightHandThumb1
RightHandThumb3	RightHandThumb2
RightHandThumb4	RightHandThumb3
LeftUpLeg	Hips
LeftLeg	LeftUpLeg
LeftFoot	LeftLeg
LeftToeBase	LeftFoot
RightUpLeg	Hips
RightLeg	RightUpLeg
RightFoot	RightLeg
RightToeBase	RightFoot
[BasePosition]
Hips	0	0	0	0	0	0	1
Spine	0	0	0	0	0	0	1
Spine1	0	0	0	0	0	0	1
Spine2	0	0	0	0	0	0	1
Neck	0	0	0	0	0	0	1
Head	0	0	0	0	0	0	1
LeftEye	0	0	0	0	0	0	1
RightEye	0	0	0	0	0	0	1
LeftShoulder	0	0	0	0	0	0	1
LeftArm	0	0	0	0	0	0	1
LeftForeArm	0	0	0	0	0	0	1
LeftHand	0	0	0	0	0	0	1
LeftHandThumb1	0	0	0	0	0	0	1
LeftHandThumb2	0	0	0	0	0	0	1
LeftHandThumb3	0	0	0	0	0	0	1
LeftHandThumb4	0	0	0	0	0	0	1
LeftHandIndex1	0	0	0	0	0	0	1
LeftHandIndex2	0	0	0	0	0	0	1
LeftHandIndex3	0	0	0	0	0	0	1
LeftHandIndex4	0	0	0	0	0	0	1
LeftHandMiddle1	0	0	0	0	0	0	1
LeftHandMiddle2	0	0	0	0	0	0	1
LeftHandMiddle3	0	0	0	0	0	0	1
LeftHandMiddle4	0	0	0	0	0	0	1
LeftHandRing1	0	0	0	0	0	0	1
LeftHandRing2	0	0	0	0	0	0	1
LeftHandRing3	0	0	0	0	0	0	1
LeftHandRing4	0	0	0	0	0	0	1
LeftHandPinky1	0	0	0	0	0	0	1
LeftHandPinky2	0	0	0	0	0	0	1
LeftHandPinky3	0	0	0	0	0	0	1
LeftHandPinky4	0	0	0	0	0	0	1
RightShoulder	0	0	0	0	0	0	1
RightArm	0	0	0	0	0	0	1
RightForeArm	0	0	0	0	0	0	1
RightHand	0	0	0	0	0	0	1
RightHandPinky1	0	0	0	0	0	0	1
RightHandPinky2	0	0	0	0	0	0	1
RightHandPinky3	0	0	0	0	0	0	1
RightHandPinky4	0	0	0	0	0	0	1
RightHandRing1	0	0	0	0	0	0	1
RightHandRing2	0	0	0	0	0	0	1
RightHandRing3	0	0	0	0	0	0	1
RightHandRing4	0	0	0	0	0	0	1
RightHandMiddle1	0	0	0	0	0	0	1
RightHandMiddle2	0	0	0	0	0	0	1
RightHandMiddle3	0	0	0	0	0	0	1
RightHandMiddle4	0	0	0	0	0	0	1
RightHandIndex1	0	0	0	0	0	0	1
RightHandIndex2	0	0	0	0	0	0	1
RightHandIndex3	0	0	0	0	0	0	1
RightHandIndex4	0	0	0	0	0	0	1
RightHandThumb1	0	0	0	0	0	0	1
RightHandThumb2	0	0	0	0	0	0	1
RightHandThumb3	0	0	0	0	0	0	1
RightHandThumb4	0	0	0	0	0	0	1
LeftUpLeg	0	0	0	0	0	0	1
LeftLeg	0	0	0	0	0	0	1
LeftFoot	0	0	0	0	0	0	1
LeftToeBase	0	0	0	0	0	0	1
RightUpLeg	0	0	0	0	0	0	1
RightLeg	0	0	0	0	0	0	1
RightFoot	0	0	0	0	0	0	1
RightToeBase	0	0	0	0	0	0	1
[Hips]
19	23.35687828	978.885437	1308.260498	-0.3786467016	8.676859856	0.03709773719	1.0
20	16.52088165	982.6817627	1384.574585	-0.8838293552	8.769446373	-1.20599544	1.0
21	9.644348145	987.4619141	1456.192627	-0.903819263	8.354559898	-2.531329632	1.0
[Spine]
19	0	101.8159943	1.315000057	1.626004815	-2.514222383	0.715039432	1.0
20	0	101.8159943	1.315000057	1.770125031	-2.272623539	1.554251671	1.0
21	0	101.8159943	1.315000057	1.910552621	-1.836336017	2.462704897	1.0
[Spine1]
19	0	100.8349991	-10.00800037	2.528295517	-4.888766766	0.283447206	1.0
20	0	100.8349991	-10.00800037	1.952261209	-4.71201992	0.3948995769	1.0
21	0	100.8349991	-10.00800037	1.539120317	-4.318740368	0.5767297149	1.0
[Spine2]
19	0	91	-13.73399925	-1.99408865	-4.918637753	-0.1138960421	1.0
20	0	91	-13.73399925	-2.606796265	-4.722132206	0.02186170965	1.0
21	0	91	-13.73399925	-3.082667828	-4.287508965	0.2140734643	1.0
[Neck]
19	0	166.7169952	-25.16200066	-4.61111784	-0.1640735865	-1.808237672	1.0
20	0	166.7169952	-25.16200066	-4.457098007	-0.1112629622	-2.133253574	1.0
21	0	166.7169952	-25.16200066	-4.317492485	-0.1524475664	-2.150780678	1.0
[Head]
19	0	96.17900085	16.84999847	-1.065119624	0.3976342976	-0.109830372	1.0
20	0	96.17900085	16.84999847	0.06132335961	0.2753531933	-0.3121309578	1.0
21	0	96.17900085	16.84999847	-0.2520274222	0.1021597162	-1.086877346	1.0
[LeftEye]
19	30.6760006	64.09500122	92.83599854	0	0	0	1.0
20	30.6760006	64.09500122	92.83599854	0	0	0	1.0
21	30.6760006	64.09500122	92.83599854	0	0	0	1.0
[RightEye]
19	-30.6760006	64.09500122	92.83499908	0	0	0	1.0
20	-30.6760006	64.09500122	92.83499908	0	0	0	1.0
21	-30.6760006	64.09500122	92.83499908	0	0	0	1.0
[LeftShoulder]
19	45.70400238	109.4599991	-26.28000069	7.623273373	-24.81271744	0.8867363334	1.0
20	45.70400238	109.4599991	-26.28000069	7.636646271	-23.73480415	0.7197636366	1.0
21	45.70400238	109.4599991	-26.28000069	7.6234231	-22.66110992	0.7302045822	1.0
[LeftArm]
19	105.923996	-5.24600029	-22.32099915	-5.610750198	5.214085579	-61.41824341	1.0
20	105.923996	-5.24600029	-22.32099915	-7.848680496	7.145983219	-64.2511673	1.0
21	105.923996	-5.24600029	-22.32099915	-7.992929459	8.838988304	-67.80916595	1.0
[LeftForeArm]
19	278.414978	-0.0009999999311	0	1.500200688e-05	-62.63019943	-0.0002119529672	1.0
20	278.414978	-0.0009999999311	0	1.128823442e-05	-65.43911743	-0.0002193136461	1.0
21	278.414978	-0.0009999999311	0	-2.989656241e-05	-66.06475067	-0.0001394558494	1.0
[LeftHand]
19	283.2879944	0	0	16.86014175	-15.60449505	7.746011257	1.0
20	283.2879944	0	0	16.25974655	-18.27771568	5.514347076	1.0
21	283.2879944	0	0	13.33312416	-19.84423447	6.164758682	1.0
[LeftHandThumb1]
19	24.6609993	-15.75	26.8239994	28.236269	-5.416958809	26.70801735	1.0
20	24.6609993	-15.75	26.8239994	28.64033318	-4.778966904	25.7905159	1.0
21	24.6609993	-15.75	26.8239994	29.02652359	-4.155521393	24.89259911	1.0
[LeftHandThumb2]
19	32.29800034	-18.64699936	18.64699936	-13.65704918	19.66148567	-23.54335213	1.0
20	32.29800034	-18.64699936	18.64699936	-13.75311947	18.59999847	-22.87483025	1.0
21	32.29800034	-18.64699936	18.64699936	-13.20806313	17.62595177	-19.52578545	1.0
[LeftHandThumb3]
19	26.52600098	-15.31499958	15.31499958	7.284962177	-14.63623142	10.72002792	1.0
20	26.52600098	-15.31499958	15.31499958	6.701545238	-16.6110096	15.73115826	1.0
21	26.52600098	-15.31499958	15.31499958	6.7780056	-16.27403069	15.18083382	1.0
[LeftHandThumb4]
19	19.54599953	-11.28499985	11.28499985	0	0	0	1.0
20	19.54599953	-11.28499985	11.28499985	0	0	0	1.0
21	19.54599953	-11.28499985	11.28499985	0	0	0	1.0
[LeftHandIndex1]
19	91.09299469	-5.170999527	22.60099792	4.637022018	2.465349674	0.6704217792	1.0
20	91.09299469	-5.170999527	22.60099792	3.918028593	2.259598255	3.462410212	1.0
21	91.09299469	-5.170999527	22.60099792	3.299386024	1.948543668	7.373220921	1.0
[LeftHandIndex2]
19	36.76399994	0	0	-0.4639903605	2.442210436	-16.96244812	1.0
20	36.76399994	0	0	-0.4648168683	2.443981886	-16.98179817	1.0
21	36.76399994	0	0	-0.4611432254	2.436026096	-16.89551163	1.0
[LeftHandIndex3]
19	28.83100128	0	0	-0.03316986561	0.1894640326	-3.995157003	1.0
20	28.83100128	0	0	-0.03331668302	0.1915242523	-4.015713215	1.0
21	28.83100128	0	0	-0.03272485361	0.1829555482	-3.930514097	1.0
[LeftHandIndex4]
19	23.92700005	0	0	0	0	0	1.0
20	23.92700005	0	0	0	0	0	1.0
21	23.92700005	0	0	0	0	0	1.0
[LeftHandMiddle1]
19	95.33399963	0	0	-1.290707707	5.75148201	-14.21353817	1.0
20	95.33399963	0	0	-1.197589755	5.750909328	-13.41348553	1.0
21	95.33399963	0	0	-1.014349341	5.834923267	-11.80898285	1.0
[LeftHandMiddle2]
19	36.98199844	0	0	-1.036750197	3.353323936	-27.37542152	1.0
20	36.98199844	0	0	-1.038188815	3.355245352	-27.39938354	1.0
21	36.98199844	0	0	-1.037472367	3.354292154	-27.38746262	1.0
[LeftHandMiddle3]
19	29.50900078	0	0	-0.2539280951	1.867299795	-16.24388504	1.0
20	29.50900078	0	0	-0.2546398938	1.869537711	-16.26755524	1.0
21	29.50900078	0	0	-0.2542766929	1.868400693	-16.25537872	1.0
[LeftHandMiddle4]
19	28.3390007	0	0	0	0	0	1.0
20	28.3390007	0	0	0	0	0	1.0
21	28.3390007	0	0	0	0	0	1.0
[LeftHandRing1]
19	91.04499817	-0.4390000105	-18.65100098	-3.442600965	6.823057175	-31.93552208	1.0
20	91.04499817	-0.4390000105	-18.65100098	-3.367822886	6.90289402	-31.34595108	1.0
21	91.04499817	-0.4390000105	-18.65100098	-3.17476058	7.005383968	-29.85177231	1.0
[LeftHandRing2]
19	31.54000092	0	0	-0.2035690993	2.091433287	-17.82761002	1.0
20	31.54000092	0	0	-0.2040770203	2.093208551	-17.84640694	1.0
21	31.54000092	0	0	-0.2008455247	2.081591129	-17.72468758	1.0
[LeftHandRing3]
19	29.37700081	0	0	0.01993759163	1.307039499	-13.23972511	1.0
20	29.37700081	0	0	0.01967056654	1.308952332	-13.25885868	1.0
21	29.37700081	0	0	0.02125475369	1.29698658	-13.13776112	1.0
[LeftHandRing4]
19	26.47500038	0	0	0	0	0	1.0
20	26.47500038	0	0	0	0	0	1.0
21	26.47500038	0	0	0	0	0	1.0
[LeftHandPinky1]
19	80.77799988	-4.887000084	-38.06099701	-3.854042768	11.17584133	-30.1899147	1.0
20	80.77799988	-4.887000084	-38.06099701	-3.790282726	11.07598782	-29.67473221	1.0
21	80.77799988	-4.887000084	-38.06099701	-3.651963949	11.01059437	-28.61422539	1.0
[LeftHandPinky2]
19	36	0	0	-0.8985761404	2.603325844	-29.54623222	1.0
20	36	0	0	-0.9044720531	2.612476826	-29.65504265	1.0
21	36	0	0	-0.9044270515	2.612392187	-29.65439606	1.0
[LeftHandPinky3]
19	21.14200211	0	0	-0.113724865	1.568207145	-7.160421371	1.0
20	21.14200211	0	0	-0.1160017848	1.578879476	-7.269009113	1.0
21	21.14200211	0	0	-0.1159773096	1.578806281	-7.268330097	1.0
[LeftHandPinky4]
19	19.75699997	0	0	0	0	0	1.0
20	19.75699997	0	0	0	0	0	1.0
21	19.75699997	0	0	0	0	0	1.0
[RightShoulder]
19	-45.70000076	109.4620056	-26.28000069	-0.8317722082	0.0345098339	6.127698898	1.0
20	-45.70000076	109.4620056	-26.28000069	-0.737518847	1.019738197	5.442439079	1.0
21	-45.70000076	109.4620056	-26.28000069	-0.5844797492	2.789610386	5.124197483	1.0
[RightArm]
19	-105.9280014	-5.248000145	-22.32099915	-5.527086735	-33.5477066	76.89299774	1.0
20	-105.9280014	-5.248000145	-22.32099915	-6.206345558	-35.67247772	78.88368988	1.0
21	-105.9280014	-5.248000145	-22.32099915	-4.838192463	-34.56313324	78.98235321	1.0
[RightForeArm]
19	-278.414978	0	0	-5.39308212e-06	32.90662384	-1.708552554e-05	1.0
20	-278.414978	0	0	2.904330131e-06	31.44142532	1.126675761e-05	1.0
21	-278.414978	0	0	5.479111564e-07	29.73538208	7.975996255e-07	1.0
[RightHand]
19	-283.2879944	0	0.0009999999311	33.24084854	0.7633265257	7.488499165	1.0
20	-283.2879944	0	0.0009999999311	30.18466759	-4.159938812	7.727933407	1.0
21	-283.2879944	0	0.0009999999311	27.49082565	-7.264760494	9.005709648	1.0
[RightHandPinky1]
19	-80.76699829	-4.885000229	-38.06000137	-4.720015049	-10.52420044	38.09896469	1.0
20	-80.76699829	-4.885000229	-38.06000137	-4.695704937	-10.35320568	38.06153488	1.0
21	-80.76699829	-4.885000229	-38.06000137	-4.89681673	-10.09785748	39.73961639	1.0
[RightHandPinky2]
19	-36	0	0.0009999999311	-2.366764545	-4.151373386	51.07741165	1.0
20	-36	0	0.0009999999311	-2.351228237	-4.140153885	50.88504028	1.0
21	-36	0	0.0009999999311	-2.308221817	-4.108683109	50.35037994	1.0
[RightHandPinky3]
19	-21.14200211	0	0	-2.202412367	-1.745811224	45.26747131	1.0
20	-21.14200211	0	0	-2.187696218	-1.733494043	45.07577515	1.0
21	-21.14200211	0	0	-2.146991968	-1.699002266	44.54299164	1.0
[RightHandPinky4]
19	-19.75699997	0	0	0	0	0	1.0
20	-19.75699997	0	0	0	0	0	1.0
21	-19.75699997	0	0	0	0	0	1.0
[RightHandRing1]
19	-91.03599548	-0.4390000105	-18.65100098	-3.380781651	-8.749940872	30.73085976	1.0
20	-91.03599548	-0.4390000105	-18.65100098	-3.377311707	-8.729609489	30.71256828	1.0
21	-91.03599548	-0.4390000105	-18.65100098	-3.670337439	-8.597345352	32.95051575	1.0
[RightHandRing2]
19	-31.54000092	0	0	-0.4175735116	-2.714079857	24.47840881	1.0
20	-31.54000092	0	0	-0.4142956138	-2.70608139	24.39114189	1.0
21	-31.54000092	0	0	-0.4071040452	-2.688374758	24.19824982	1.0
[RightHandRing3]
19	-29.37700081	0	0	-0.2110940367	-0.2081739306	20.89805984	1.0
20	-29.37700081	0	0	-0.2088129222	-0.199775219	20.81087685	1.0
21	-29.37700081	0	0	-0.2038318515	-0.1812919676	20.61853981	1.0
[RightHandRing4]
19	-26.47500038	0	0	0	0	0	1.0
20	-26.47500038	0	0	0	0	0	1.0
21	-26.47500038	0	0	0	0	0	1.0
[RightHandMiddle1]
19	-95.32500458	0	0	-0.8459743857	-5.54376173	10.34956455	1.0
20	-95.32500458	0	0	-0.852948904	-5.946950912	10.36790752	1.0
21	-95.32500458	0	0	-1.194745779	-6.594292641	13.30242538	1.0
[RightHandMiddle2]
19	-36.98199844	0	0	-1.75695014	-4.152744293	38.03594971	1.0
20	-36.98199844	0	0	-1.753965259	-4.149987698	37.99564362	1.0
21	-36.98199844	0	0	-1.746251702	-4.142845154	37.89168549	1.0
[RightHandMiddle3]
19	-29.50900078	0	0	-0.8791383505	-3.04440403	31.06142044	1.0
20	-29.50900078	0	0	-0.8771862388	-3.041315794	31.02461052	1.0
21	-29.50900078	0	0	-0.8718868494	-3.03286314	30.92403793	1.0
[RightHandMiddle4]
19	-28.3390007	0	0.0009999999311	0	0	0	1.0
20	-28.3390007	0	0.0009999999311	0	0	0	1.0
21	-28.3390007	0	0.0009999999311	0	0	0	1.0
[RightHandIndex1]
19	-91.08300018	-5.167999744	22.60099792	0.519593358	2.871240139	-0.9060519338	1.0
20	-91.08300018	-5.167999744	22.60099792	0.5256537199	2.889274836	-0.9482190013	1.0
21	-91.08300018	-5.167999744	22.60099792	0.217435509	2.047028065	1.851799369	1.0
[RightHandIndex2]
19	-36.76399994	0	0	-0.9888358116	-3.352416754	27.31819916	1.0
20	-36.76399994	0	0	-0.9693279862	-3.324551344	26.98342896	1.0
21	-36.76399994	0	0	-0.9607772231	-3.312221766	26.83561516	1.0
[RightHandIndex3]
19	-28.83100128	0	0	-0.352978617	-0.5587995648	17.99578667	1.0
20	-28.83100128	0	0	-0.3427075446	-0.5268460512	17.66195869	1.0
21	-28.83100128	0	0	-0.3382273912	-0.5127331614	17.51459885	1.0
[RightHandIndex4]
19	-23.92700005	0	0	0	0	0	1.0
20	-23.92700005	0	0	0	0	0	1.0
21	-23.92700005	0	0	0	0	0	1.0
[RightHandThumb1]
19	-24.64799881	-15.72700024	26.82600021	20.07147408	-9.221542358	-18.49325562	1.0
20	-24.64799881	-15.72700024	26.82600021	20.15267372	-9.33111763	-18.53557396	1.0
21	-24.64799881	-15.72700024	26.82600021	19.44417	-7.680913925	-17.69768143	1.0
[RightHandThumb2]
19	-32.29800034	-18.64699936	18.64699936	6.281128407	3.288355589	-16.31197357	1.0
20	-32.29800034	-18.64699936	18.64699936	6.169668674	3.569154263	-16.37835884	1.0
21	-32.29800034	-18.64699936	18.64699936	5.934902668	2.247969389	-16.13798141	1.0
[RightHandThumb3]
19	-26.52600098	-15.31399918	15.31399918	-12.30218887	7.913843632	7.640748024	1.0
20	-26.52600098	-15.31399918	15.31399918	-12.3049221	7.927520752	7.635806561	1.0
21	-26.52600098	-15.31399918	15.31399918	-12.35413837	8.173276901	7.546623707	1.0
[RightHandThumb4]
19	-19.54599953	-11.28499985	11.28499985	0	0	0	1.0
20	-19.54599953	-11.28499985	11.28499985	0	0	0	1.0
21	-19.54599953	-11.28499985	11.28499985	0	0	0	1.0
[LeftUpLeg]
19	82.07800293	-67.51699829	-15.99599934	10.02949619	11.43964672	4.596858978	1.0
20	82.07800293	-67.51699829	-15.99599934	8.370681763	8.60089016	5.644248486	1.0
21	82.07800293	-67.51699829	-15.99599934	0.3585903347	3.592279673	5.13674593	1.0
[LeftLeg]
19	0	-443.7049866	2.845999956	28.36205482	-9.38035965	2.073506355	1.0
20	0	-443.7049866	2.845999956	37.08548355	-9.980006218	1.455080032	1.0
21	0	-443.7049866	2.845999956	53.97430038	-7.849871159	1.397580981	1.0
[LeftFoot]
19	0	-444.2789917	-29.8219986	-0.7277476788	-12.94229984	-2.407247543	1.0
20	0	-444.2789917	-29.8219986	10.03829575	-7.947667122	-5.982682228	1.0
21	0	-444.2789917	-29.8219986	18.34153366	-0.5137808323	-14.06139278	1.0
[LeftToeBase]
19	0	-87.28699493	107.1060028	-30.90365219	1.896286011	4.654721737	1.0
20	0	-87.28699493	107.1060028	-25.72090912	1.805145383	6.674715042	1.0
21	0	-87.28699493	107.1060028	-1.22673142	-4.467418933e-07	2.682467539e-06	1.0
[RightUpLeg]
19	-82.07800293	-67.51699829	-15.99599934	-34.94816208	-10.35231018	6.226987362	1.0
20	-82.07800293	-67.51699829	-15.99599934	-30.45431709	-9.840045929	7.991896629	1.0
21	-82.07800293	-67.51699829	-15.99599934	-27.51003456	-8.529649734	8.907628059	1.0
[RightLeg]
19	0	-443.7049866	2.861999989	25.1157589	3.726584911	-1.635785818	1.0
20	0	-443.7049866	2.861999989	23.71399689	2.809421778	-1.774309397	1.0
21	0	-443.7049866	2.861999989	27.69754982	2.44418931	-0.7288336158	1.0
[RightFoot]
19	0	-444.2770081	-29.83799934	-5.722434998	-3.349148273	5.898670197	1.0
20	0	-444.2770081	-29.83799934	8.28830719	-4.594082832	-2.640187979	1.0
21	0	-444.2770081	-29.83799934	-0.117830947	-4.659945011	-3.002626181	1.0
[RightToeBase]
19	0	-87.28699493	107.1060028	-11.7566433	3.153327555e-07	-2.593812042e-06	1.0
20	0	-87.28699493	107.1060028	-5.920574665	-1.713578627e-06	-7.88259058e-07	1.0
21	0	-87.28699493	107.1060028	-3.722608566	-9.115022976e-07	-1.447922955e-07	1.0
[EndOfFile]
